<?xml version="1.0" standalone="no"?>
<!DOCTYPE svg PUBLIC "-//W3C//DTD SVG 1.1//EN" "http://www.w3.org/Graphics/SVG/1.1/DTD/svg11.dtd" >
<svg xmlns="http://www.w3.org/2000/svg">
<metadata></metadata>
<defs>
<font id="epocaclassic-lightregular" horiz-adv-x="1171" >
<font-face units-per-em="2048" ascent="1556" descent="-492" />
<missing-glyph horiz-adv-x="483" />
<glyph unicode="&#xfb01;" horiz-adv-x="1165" d="M47 940v92h172v115q0 194 74 283q91 112 282 112q73 0 127 -10v-117q-70 19 -129 19q-49 0 -87.5 -17t-57.5 -41q-55 -64 -55 -217v-127h616v-1032h-153v940h-463v-940h-154v940h-172zM817 1352q0 55 25 78.5t76 23.5q48 0 70 -22.5t22 -79.5q0 -56 -23 -79.5t-74 -23.5 q-50 0 -73 22.5t-23 80.5z" />
<glyph unicode="&#xfb02;" horiz-adv-x="1161" d="M47 940v92h172v103q0 191 92 290q52 55 143 86t191 31q172 0 344 -26v-1516h-151v1425q-77 9 -179 9q-160 0 -223 -61.5t-63 -229.5v-111h235v-92h-235v-940h-154v940h-172z" />
<glyph unicode="&#xfb03;" horiz-adv-x="1769" d="M47 940v92h172v117q0 178 81 262t253 84q111 0 162 -10v-115q-83 19 -160 19q-90 0 -137 -50q-28 -33 -36.5 -64.5t-8.5 -113.5v-129h465v160q0 179 81 264.5t255 85.5q91 0 145 -10v-117q-66 19 -127 19q-106 0 -150 -41q-28 -30 -40.5 -68.5t-12.5 -122.5v-170h608 v-1032h-155v940h-453v-940h-151v940h-465v-940h-154v940h-172zM1423 1352q0 56 24 79t75 23q49 0 70.5 -22.5t21.5 -79.5q0 -56 -23 -79.5t-73 -23.5q-49 0 -72 22.5t-23 80.5z" />
<glyph unicode="&#xfb04;" horiz-adv-x="1783" d="M47 940v92h172v96q0 201 76 277q86 92 256 92q93 0 164 -12v-117q-74 21 -144 21q-112 0 -155 -52.5t-43 -177.5v-127h465v103q0 190 90 290q50 55 139.5 86t189.5 31q204 0 351 -26v-1516h-154v1425q-74 9 -180 9q-160 0 -222.5 -61t-62.5 -230v-111h238v-92h-238v-940 h-151v940h-465v-940h-154v940h-172z" />
<glyph horiz-adv-x="2048" />
<glyph horiz-adv-x="2048" />
<glyph unicode="&#xd;" horiz-adv-x="2048" />
<glyph unicode=" "  horiz-adv-x="483" />
<glyph unicode="&#x09;" horiz-adv-x="483" />
<glyph unicode="&#xa0;" horiz-adv-x="483" />
<glyph unicode="!" horiz-adv-x="587" d="M205 94q0 58 30 86.5t82 28.5q49 0 78 -28t29 -87q0 -54 -30 -82t-81 -28q-50 0 -79 27t-29 83zM225 1446h181q0 -16 -25 -1028h-131q-25 1012 -25 1028z" />
<glyph unicode="&#x22;" horiz-adv-x="768" d="M117 1487h186l-45 -572h-94zM465 1487h184l-43 -572h-96z" />
<glyph unicode="#" horiz-adv-x="1312" d="M98 459v139h314l32 238h-297v139h318l61 428h99l-62 -428h271l61 428h98l-61 -428h285v-139h-306l-32 -238h288v-139h-309l-67 -479h-99l68 479h-271l-67 -479h-98l67 479h-293zM510 598h270l33 238h-270z" />
<glyph unicode="$" horiz-adv-x="1038" d="M94 55v144q100 -50 185.5 -77.5t185.5 -27.5h14v545l-61 27q-158 67 -228.5 154t-70.5 222q0 150 96 244t264 113v196h105v-192q158 -6 293 -62v-139q-83 40 -149 62t-144 26v-512l32 -14q182 -79 253 -167.5t71 -231.5q0 -144 -94.5 -244t-261.5 -127v-199h-105v189h-16 q-94 0 -195.5 19.5t-173.5 51.5zM264 1055q0 -67 49 -124t166 -108v463q-215 -28 -215 -231zM584 106q200 45 200 261q0 74 -48.5 127t-151.5 100v-488z" />
<glyph unicode="%" horiz-adv-x="1699" d="M74 958q0 451 329 451q165 0 243.5 -106t78.5 -342q0 -449 -330 -449q-160 0 -240.5 106.5t-80.5 339.5zM207 958q0 -193 47.5 -277.5t146.5 -84.5q101 0 147 91.5t46 277.5q0 202 -45.5 281t-149.5 79q-95 0 -143.5 -86.5t-48.5 -280.5zM504 0l583 1384h109l-586 -1384 h-106zM975 426q0 451 330 451q164 0 242.5 -106.5t78.5 -342.5q0 -448 -330 -448q-161 0 -241 106t-80 340zM1106 426q0 -193 48.5 -278t148.5 -85t146 91.5t46 277.5q0 201 -46 281t-149 80q-96 0 -145 -86t-49 -281z" />
<glyph unicode="&#x26;" horiz-adv-x="1591" d="M109 391q0 88 23 155.5t65.5 111t91 70.5t112.5 46q-219 79 -219 303q0 98 37.5 172.5t104 119t151.5 67t187 22.5q192 0 317 -51v-129q-55 31 -140.5 53.5t-168.5 22.5q-322 0 -322 -277q0 -127 81 -196.5t187 -69.5h46v-98h-54q-152 0 -239.5 -78t-87.5 -238 q0 -73 23.5 -130.5t60.5 -93t89 -58.5t103.5 -32t108.5 -9q77 0 140.5 10t125.5 38t104 72.5t68 119t26 173.5q0 96 -32 170q-153 -62 -332 -98l-29 109q172 47 305.5 99.5t221.5 106.5t143 100.5t100 100.5l101 -98q-101 -141 -412 -283q36 -43 59 -105t23 -110 q0 -113 -34 -202t-91 -145.5t-137.5 -93.5t-166.5 -52t-185 -15q-115 0 -212.5 23.5t-175.5 72t-122.5 131.5t-44.5 193z" />
<glyph unicode="'" horiz-adv-x="421" d="M117 1487h186l-45 -572h-94z" />
<glyph unicode="(" horiz-adv-x="661" d="M139 582q0 793 500 954v-94q-113 -56 -186 -156.5t-113.5 -273.5t-40.5 -422q0 -204 24.5 -359t71 -257.5t105 -166t135.5 -102.5v-98q-496 148 -496 975z" />
<glyph unicode=")" horiz-adv-x="661" d="M20 -297q113 55 186.5 154.5t114.5 273.5t41 424q0 203 -24.5 358t-71.5 257.5t-105.5 166t-135.5 103.5v96q248 -72 371.5 -313t123.5 -660q0 -793 -500 -954v94z" />
<glyph unicode="*" horiz-adv-x="862" d="M55 1118l45 123q64 -21 167.5 -72.5t135.5 -64.5q-29 191 -32 332h135q-1 -36 -6.5 -84.5t-10 -79.5t-14 -93t-12.5 -79q33 13 144 59.5t169 65.5l33 -121q-135 -37 -322 -70q16 -18 71 -74.5t91.5 -98t61.5 -79.5l-115 -71q-36 53 -91 156t-73 132q-25 -39 -82 -138 t-90 -146l-108 76q28 39 68 82t89 91.5t72 73.5q-254 56 -326 80z" />
<glyph unicode="+" horiz-adv-x="1517" d="M203 563v131h487v490h137v-490h488v-131h-488v-489h-135v489h-489z" />
<glyph unicode="," horiz-adv-x="452" d="M61 -328q95 222 95 570h168q0 -153 -40 -313.5t-98 -256.5h-125z" />
<glyph unicode="-" horiz-adv-x="696" d="M90 498v145h516v-145h-516z" />
<glyph unicode="." horiz-adv-x="452" d="M117 94q0 57 31 86t81 29q107 0 107 -115q0 -54 -29.5 -82t-81.5 -28q-49 0 -78.5 27t-29.5 83z" />
<glyph unicode="/" horiz-adv-x="823" d="M-6 -104l684 1589h139l-688 -1589h-135z" />
<glyph unicode="0" d="M106 690q0 723 496 723q245 0 354 -162.5t109 -539.5q0 -393 -116.5 -566.5t-368.5 -173.5q-161 0 -264.5 72t-156.5 231.5t-53 415.5zM274 694q0 -175 20.5 -297t61.5 -193.5t96 -102.5t132 -31q112 0 181.5 60.5t104.5 199t35 366.5q0 330 -74 474.5t-241 144.5 q-159 0 -237.5 -149t-78.5 -472z" />
<glyph unicode="1" d="M272 1079v121q190 99 318 184h129v-1384h-160v1247q-127 -80 -287 -168z" />
<glyph unicode="2" d="M117 0v94q188 165 324 296t249 265q72 86 106.5 188t34.5 175q0 135 -69.5 212t-212.5 77q-163 0 -344 -107v115q84 45 182.5 71.5t181.5 26.5q223 0 332 -98.5t109 -278.5q0 -211 -170 -409q-219 -247 -525 -486q219 2 711 2v-143h-909z" />
<glyph unicode="3" d="M150 37v125q153 -82 360 -82q95 0 162.5 26t103 70.5t51 94t15.5 106.5q0 136 -86 212.5t-271 76.5h-96v96h98q74 0 131 17.5t91 45t56 66t30 75t8 76.5q0 135 -68.5 201t-210.5 66q-164 0 -336 -92v114q163 82 351 82q214 0 322 -93.5t108 -275.5q0 -124 -66 -207.5 t-176 -113.5q121 -16 197.5 -104.5t76.5 -231.5q0 -110 -36 -191.5t-103 -130t-154 -71.5t-196 -23q-214 0 -362 66z" />
<glyph unicode="4" d="M86 379v115l643 890h160v-880h219v-125h-219v-379h-158v379h-645zM240 504h491q0 459 4 717q-43 -68 -90 -136.5t-166 -237.5t-239 -343z" />
<glyph unicode="5" d="M164 37v125q153 -82 364 -82q176 0 259 86.5t83 259.5q0 81 -16.5 141.5t-44 98t-69.5 60.5t-87.5 31.5t-103.5 8.5q-83 0 -156.5 -15t-185.5 -61l55 694h703v-143h-592l-31 -399q139 43 258 43q213 0 321.5 -116t108.5 -341q0 -117 -38 -205.5t-106.5 -143t-158 -81.5 t-197.5 -27q-226 0 -366 66z" />
<glyph unicode="6" d="M125 633q0 180 30 317.5t81 224t125.5 141t155.5 76t179 21.5q153 0 271 -43v-115q-71 32 -130.5 46t-142.5 14q-191 0 -301 -151.5t-123 -440.5q48 85 151 133.5t222 48.5q202 0 315 -109t113 -347q0 -224 -122.5 -351t-344.5 -127q-80 0 -144.5 15t-129 59t-108 115.5 t-70.5 192t-27 280.5zM291 473q0 -73 18 -142t54.5 -128.5t99 -96t143.5 -36.5q150 0 224.5 99t74.5 286q0 171 -76.5 258.5t-222.5 87.5q-150 0 -232.5 -95.5t-82.5 -232.5z" />
<glyph unicode="7" d="M113 1241v143h882v-114q-320 -724 -499 -1270h-174q114 334 237.5 619.5t286.5 621.5h-733z" />
<glyph unicode="8" d="M125 371q0 276 260 360q-217 82 -217 320q0 157 107.5 259.5t314.5 102.5q212 0 315 -95t103 -267q0 -226 -220 -320q117 -27 188 -120t71 -236q0 -184 -119 -294t-344 -110q-229 0 -344 103.5t-115 296.5zM283 377q0 -158 84 -231.5t219 -73.5q140 0 219.5 77.5 t79.5 223.5q0 160 -82 233.5t-215 73.5q-137 0 -221 -73.5t-84 -229.5zM322 1038q0 -68 21.5 -120t59 -82t83.5 -45t100 -15q50 0 93 12t84 39.5t65 83t24 133.5q0 57 -13.5 103t-43 84.5t-83.5 60t-128 21.5q-71 0 -123 -22t-81.5 -61.5t-43.5 -87t-14 -104.5z" />
<glyph unicode="9" d="M102 934q0 221 127.5 349t341.5 128q56 0 103.5 -7t97.5 -26t89.5 -50t75 -81.5t59 -117.5t37.5 -161t14 -210q0 -180 -29.5 -318t-79.5 -226t-124 -144t-156.5 -78.5t-182.5 -22.5q-161 0 -276 43v115q68 -32 131 -45.5t147 -13.5q190 0 299.5 155t124.5 445 q-52 -85 -157 -134t-214 -49q-201 0 -314.5 109.5t-113.5 339.5zM268 928q0 -338 295 -338q152 0 235 91.5t83 227.5q0 73 -17.5 141.5t-53.5 128t-98 96t-143 36.5q-144 0 -222.5 -100.5t-78.5 -282.5z" />
<glyph unicode=":" horiz-adv-x="493" d="M158 94q0 58 30 86.5t82 28.5q49 0 78 -28t29 -87q0 -54 -30 -82t-81 -28q-50 0 -79 27t-29 83zM158 922q0 57 30 85.5t82 28.5q48 0 77.5 -28.5t29.5 -85.5q0 -55 -30 -83t-81 -28q-108 0 -108 111z" />
<glyph unicode=";" horiz-adv-x="493" d="M102 -328q95 222 95 570h168q0 -153 -40 -313.5t-98 -256.5h-125zM158 922q0 57 30 85.5t82 28.5q48 0 77.5 -28.5t29.5 -85.5q0 -55 -30 -83t-81 -28q-108 0 -108 111z" />
<glyph unicode="&#x3c;" horiz-adv-x="1517" d="M238 551v154l981 479v-154l-846 -399l846 -393v-156z" />
<glyph unicode="=" horiz-adv-x="1517" d="M205 362v134h1108v-134h-1108zM205 754v131h1108v-131h-1108z" />
<glyph unicode="&#x3e;" horiz-adv-x="1517" d="M297 80v151l844 402l-844 391v158l981 -469v-154z" />
<glyph unicode="?" horiz-adv-x="897" d="M70 1268v110q163 78 333 78q404 0 404 -340q0 -104 -48.5 -184.5t-187.5 -200.5q-83 -70 -111 -141t-30 -172h-129q0 61 2.5 92t14.5 74.5t39.5 81.5t74.5 82q197 183 197 358q0 242 -240 242q-158 0 -319 -80zM256 94q0 58 30.5 86.5t82.5 28.5q49 0 77.5 -28t28.5 -87 q0 -54 -29.5 -82t-80.5 -28q-50 0 -79.5 27t-29.5 83z" />
<glyph unicode="@" horiz-adv-x="1779" d="M113 449q0 193 66 360.5t181.5 287t281 187.5t357.5 68q316 0 500 -176t184 -474q0 -159 -57 -300t-156.5 -226.5t-216.5 -85.5q-77 0 -126.5 49.5t-61.5 136.5q-70 -96 -147 -141t-179 -45q-120 0 -193 76.5t-73 210.5q0 183 109 371q40 69 93 119.5t106.5 77t101 38.5 t90.5 12q137 0 211 -77q5 23 18 53h127q-48 -193 -59 -248l-64 -311q-12 -58 -12 -109q0 -123 96 -123q70 0 133 74t100.5 193.5t37.5 248.5q0 270 -149 421t-413 151q-158 0 -298 -62t-240.5 -170t-158.5 -260t-58 -325q0 -305 181 -489.5t480 -184.5q347 0 621 203v-119 q-124 -83 -287.5 -130.5t-339.5 -47.5q-231 0 -410 97t-277.5 271.5t-98.5 397.5zM618 395q0 -217 166 -217q46 0 96 23t83 61q46 57 77.5 124t61.5 187q33 136 33 220q0 120 -162 120q-95 0 -178.5 -81.5t-130 -200.5t-46.5 -236z" />
<glyph unicode="A" horiz-adv-x="1228" d="M18 0l533 1446h164l495 -1446h-178l-170 502h-514l-176 -502h-154zM383 604h446q-66 199 -110 335t-69.5 215.5t-37.5 117.5q-147 -435 -229 -668z" />
<glyph unicode="B" horiz-adv-x="1224" d="M182 0v1446h375q89 0 195 -8q156 -12 238.5 -101.5t82.5 -251.5q0 -245 -239 -325q138 -25 214 -113t76 -235q0 -129 -61 -229.5t-176 -141.5q-113 -41 -330 -41h-375zM346 100h223q168 0 246 37q64 30 101.5 99.5t37.5 169.5q0 84 -36.5 157t-104.5 107 q-39 19 -89.5 25.5t-143.5 6.5h-234v-602zM346 803h223q153 0 224 41q52 30 83 92.5t31 142.5q0 87 -38 154t-107 90q-77 23 -217 23h-199v-543z" />
<glyph unicode="C" horiz-adv-x="1193" d="M111 700q0 386 171 581.5t478 195.5q187 0 352 -62v-131q-157 82 -348 82q-479 0 -479 -651q0 -625 458 -625q219 0 375 96v-131q-64 -34 -168.5 -59t-224.5 -25q-141 0 -252 41.5t-193 128t-125.5 228t-43.5 331.5z" />
<glyph unicode="D" horiz-adv-x="1406" d="M182 0v1446h377q237 0 377 -41q358 -100 358 -662q0 -91 -10.5 -173t-36.5 -166t-66.5 -150.5t-105 -120.5t-147.5 -82q-83 -29 -164 -40t-236 -11h-346zM346 100h215q241 0 354 78q97 67 151 211t54 354q0 429 -225 545q-113 58 -342 58h-207v-1246z" />
<glyph unicode="E" horiz-adv-x="1105" d="M182 0v1446h819v-100h-655v-541h623v-103h-623v-602h678v-100h-842z" />
<glyph unicode="F" horiz-adv-x="1013" d="M182 0v1446h795v-100h-631v-562h586v-104h-586v-680h-164z" />
<glyph unicode="G" horiz-adv-x="1380" d="M111 700q0 384 175 580.5t488 196.5q243 0 397 -62v-129q-75 38 -180 60t-217 22q-233 0 -361 -162t-128 -491q0 -318 118 -476.5t345 -158.5q198 0 327 55v483h-370v103h532v-641q-210 -109 -489 -109q-144 0 -258.5 42t-200 128t-132 227.5t-46.5 331.5z" />
<glyph unicode="H" horiz-adv-x="1404" d="M182 0v1446h164v-641h713v641h162v-1446h-162v702h-713v-702h-164z" />
<glyph unicode="I" horiz-adv-x="528" d="M182 0v1446h164v-1446h-164z" />
<glyph unicode="J" horiz-adv-x="798" d="M10 4v129q108 -43 217 -43q63 0 106 16t69 43.5t40 79t18.5 107.5t4.5 143v967h162v-985q0 -122 -13 -195t-43 -125q-91 -168 -333 -168q-114 0 -228 31z" />
<glyph unicode="K" horiz-adv-x="1187" d="M182 0v1446h164v-680l619 680h176q-477 -506 -625 -651q105 -115 684 -795h-211l-643 739v-739h-164z" />
<glyph unicode="L" horiz-adv-x="983" d="M182 0v1446h164v-1346h604v-100h-768z" />
<glyph unicode="M" horiz-adv-x="1732" d="M170 0l37 1446h239q175 -490 298 -828t145 -399q97 320 407 1227h228q-1 -5 32 -1446h-172q-18 831 -18 1315q-54 -182 -125.5 -396.5t-314.5 -918.5h-138q-429 1205 -466 1313q0 -385 -21 -1313h-131z" />
<glyph unicode="N" horiz-adv-x="1456" d="M182 0v1446h189q405 -614 553.5 -847t224.5 -370q-8 391 -8 1217h133v-1446h-162q-195 305 -363.5 566.5t-233 361.5t-116.5 182t-92 147q6 -295 6 -1257h-131z" />
<glyph unicode="O" horiz-adv-x="1427" d="M113 723q0 378 163 566t455 188q298 0 441 -182t143 -550q0 -389 -151.5 -581.5t-461.5 -192.5q-296 0 -442.5 187t-146.5 565zM285 727q0 -175 28.5 -302t84.5 -203.5t132 -112t177 -35.5q222 0 329 157.5t107 497.5q0 330 -99.5 487.5t-320.5 157.5q-438 0 -438 -647z " />
<glyph unicode="P" horiz-adv-x="1263" d="M182 0v1446h439q211 0 325 -43q103 -39 156 -129t53 -217q0 -97 -26 -178.5t-87.5 -145t-152.5 -84.5q-121 -28 -283 -28h-260v-621h-164zM346 725h264q176 0 260 51q113 67 113 275q0 81 -28 149.5t-87 102.5q-73 43 -245 43h-277v-621z" />
<glyph unicode="Q" horiz-adv-x="1427" d="M113 723q0 378 163 566t455 188q298 0 441 -182t143 -550q0 -444 -199 -634l307 -215l-92 -109l-338 242q-129 -58 -291 -58q-296 0 -442.5 187t-146.5 565zM285 727q0 -175 28.5 -302t84.5 -203.5t132 -112t177 -35.5q222 0 329 157.5t107 497.5q0 330 -99.5 487.5 t-320.5 157.5q-438 0 -438 -647z" />
<glyph unicode="R" horiz-adv-x="1288" d="M182 0v1446h434q228 0 332 -43q189 -79 189 -330q0 -285 -289 -348q104 -28 158.5 -98.5t93.5 -235.5l94 -391h-168l-86 369q-50 203 -141 260q-46 27 -96.5 36t-127.5 9h-229v-674h-164zM346 776h256q184 0 254 47q109 68 109 246q0 196 -111 244q-73 33 -231 33h-277 v-570z" />
<glyph unicode="S" horiz-adv-x="1069" d="M96 47v141q101 -51 187 -78.5t188 -27.5q164 0 244 79t80 218q0 85 -56 148t-176 116l-139 59q-161 70 -233 161t-72 231q0 176 120 279.5t322 103.5q184 0 328 -64v-137q-93 45 -163.5 67.5t-160.5 22.5q-297 0 -297 -258q0 -152 221 -248l136 -59q185 -83 257 -178.5 t72 -245.5q0 -181 -130 -293.5t-355 -112.5q-95 0 -198 21t-175 55z" />
<glyph unicode="T" horiz-adv-x="1169" d="M45 1346v100h1079v-100h-465v-1346h-163v1346h-451z" />
<glyph unicode="U" horiz-adv-x="1435" d="M178 582v864h164v-860q0 -209 39 -318q31 -89 122 -137.5t224 -48.5q89 0 164.5 19t114.5 57q58 53 81 143.5t23 273.5v871h147v-860q0 -162 -14.5 -248.5t-52.5 -155.5q-54 -101 -177.5 -157t-295.5 -56t-301.5 58.5t-184.5 183.5q-53 118 -53 371z" />
<glyph unicode="V" horiz-adv-x="1251" d="M41 1446h184q328 -1001 408 -1266q15 48 420 1266h166l-521 -1446h-161z" />
<glyph unicode="W" horiz-adv-x="1912" d="M70 1446h182q235 -993 287 -1243q79 292 356 1243h166q311 -1122 342 -1247q11 45 98.5 416t198.5 831h166l-381 -1446h-174q-219 781 -344 1233q-48 -188 -363 -1233h-162z" />
<glyph unicode="X" horiz-adv-x="1314" d="M57 0l506 745l-452 701h206q74 -120 353 -567q19 31 53 84.5t116.5 183.5t188.5 299h184l-456 -678l501 -768h-210q-385 613 -398 635q-192 -299 -399 -635h-193z" />
<glyph unicode="Y" horiz-adv-x="1269" d="M31 1446h202q327 -565 412 -721q10 17 124 216.5t290 504.5h188l-536 -852v-594h-164v594z" />
<glyph unicode="Z" horiz-adv-x="1196" d="M59 0v86q296 441 488 725t261.5 386.5t94.5 139.5h-778v109h985v-92q-287 -424 -470.5 -694.5t-265 -389t-110.5 -161.5h856v-109h-1061z" />
<glyph unicode="[" horiz-adv-x="591" d="M170 -354v1857h399v-94h-252v-1669h252v-94h-399z" />
<glyph unicode="\" horiz-adv-x="823" d="M0 1485h158l678 -1589h-156z" />
<glyph unicode="]" horiz-adv-x="591" d="M25 -260h249v1669h-249v94h397v-1857h-397v94z" />
<glyph unicode="^" horiz-adv-x="1517" d="M266 604l418 842h152l415 -842h-151l-344 701l-340 -701h-150z" />
<glyph unicode="_" horiz-adv-x="1073" d="M0 -162h1073v-106h-1073v106z" />
<glyph unicode="`" horiz-adv-x="452" d="M10 1481h219l213 -281h-137z" />
<glyph unicode="a" horiz-adv-x="1052" d="M96 291q0 154 123.5 233.5t386.5 79.5q55 0 129 -4v92q0 133 -47 193q-51 65 -170 65q-171 0 -323 -84v119q158 74 342 74q182 0 266 -79t84 -271v-482q0 -146 26 -227h-149q-22 75 -25 143q-93 -168 -313 -168q-153 0 -241.5 88t-88.5 228zM252 295q0 -99 54 -157 t151 -58q141 0 229 110q49 57 49 181v145q-29 2 -100 2q-383 0 -383 -223z" />
<glyph unicode="b" horiz-adv-x="1155" d="M164 0q8 99 8 276v1252h152v-647q56 80 145 127t188 47q194 0 296 -129t102 -383q0 -284 -112.5 -423.5t-313.5 -139.5q-209 0 -318 133q0 -45 -10 -113h-137zM326 508q0 -228 41 -303q35 -65 96 -99t139 -34q291 0 291 469q0 411 -281 411q-69 0 -137.5 -37t-105.5 -106 q-43 -79 -43 -301z" />
<glyph unicode="c" horiz-adv-x="890" d="M102 500q0 278 125 418.5t355 140.5q142 0 247 -31v-135q-93 57 -249 57q-154 0 -236 -109t-82 -331q0 -218 87 -325t235 -107q125 0 252 67v-114q-122 -58 -281 -58q-215 0 -334 131t-119 396z" />
<glyph unicode="d" horiz-adv-x="1146" d="M102 502q0 108 19.5 195.5t54 146.5t77.5 101.5t94.5 65.5t99 33.5t96.5 10.5q183 0 288 -94v567h152v-1286q0 -120 18 -242h-147q-4 23 -18 135q-68 -79 -143.5 -118.5t-182.5 -39.5q-190 0 -299 135t-109 390zM262 504q0 -217 74.5 -323.5t204.5 -106.5q134 0 207 80 q48 52 67 127t19 245q0 172 -10.5 246t-43.5 111q-73 78 -221 78q-131 0 -214 -113.5t-83 -343.5z" />
<glyph unicode="e" horiz-adv-x="1019" d="M102 520q0 259 116 399t329 140q100 0 170 -25.5t109.5 -67t70.5 -106.5q49 -106 49 -301v-41h-686q1 -217 86 -328.5t244 -111.5q67 0 128.5 14.5t97 30.5t89.5 45v-117q-144 -78 -340 -78q-231 0 -347 133.5t-116 413.5zM264 604h516q0 72 -5.5 123.5t-20.5 99.5 t-41 77.5t-69 47t-103 17.5q-41 0 -78.5 -11t-73 -37.5t-62 -67t-44 -104.5t-19.5 -145z" />
<glyph unicode="f" horiz-adv-x="616" d="M47 940v92h172v94q0 217 72 306q90 110 264 110q89 0 152 -14v-119q-66 25 -134 25q-92 0 -149 -54q-51 -48 -51 -229v-119h231v-92h-231v-940h-154v940h-172z" />
<glyph unicode="g" horiz-adv-x="1155" d="M102 506q0 120 24.5 215t65.5 156.5t98 102.5t119.5 58t133.5 17q198 0 297 -119q4 41 12 96h141q-10 -127 -10 -295v-710q0 -240 -82 -344q-57 -73 -159 -107.5t-226 -34.5q-183 0 -321 60v127q137 -76 321 -76q72 0 137 20t101 56q77 77 77 297v104 q-112 -133 -323 -133q-197 0 -301.5 126.5t-104.5 383.5zM262 504q0 -203 79 -306.5t214 -103.5q55 0 106.5 17.5t81.5 42.5q42 34 58 64t24.5 103.5t8.5 229.5q0 160 -11.5 217t-44.5 98q-68 90 -219 90q-130 0 -213.5 -115t-83.5 -337z" />
<glyph unicode="h" horiz-adv-x="1146" d="M174 0v1528h156v-617q71 80 167 114t185 34q240 0 285 -215q12 -55 12 -236v-608h-152v575q0 179 -20 252q-38 125 -184 125q-70 0 -139.5 -25t-110.5 -75q-29 -36 -37 -76.5t-8 -132.5v-643h-154z" />
<glyph unicode="i" horiz-adv-x="501" d="M156 1352q0 56 23.5 79t74.5 23q49 0 70.5 -22.5t21.5 -79.5q0 -56 -23 -79.5t-73 -23.5q-49 0 -71.5 22.5t-22.5 80.5zM174 0v1032h156v-1032h-156z" />
<glyph unicode="j" horiz-adv-x="509" d="M-94 -330q47 -12 104 -12q88 0 133 45q43 40 43 207v1122h156v-1108q0 -200 -61 -272q-83 -92 -258 -92q-64 0 -117 12v98zM170 1352q0 56 23.5 79t74.5 23q49 0 70.5 -22.5t21.5 -79.5q0 -56 -23 -79.5t-73 -23.5q-49 0 -71.5 22.5t-22.5 80.5z" />
<glyph unicode="k" horiz-adv-x="1017" d="M174 0v1528h154v-957l454 461h164q-327 -321 -463 -442q161 -175 518 -590h-200l-473 545v-545h-154z" />
<glyph unicode="l" horiz-adv-x="503" d="M174 0v1528h156v-1528h-156z" />
<glyph unicode="m" horiz-adv-x="1771" d="M158 1032h151q17 -74 17 -129q66 82 164 119t184 37q218 0 270 -168q71 86 175 127t192 41q247 0 278 -215q13 -89 13 -236v-608h-152v578q0 185 -18 251q-19 63 -62 94t-119 31q-67 0 -132 -25t-107 -75q-30 -36 -37.5 -75.5t-7.5 -135.5v-643h-152v578q0 87 -1.5 128 t-11.5 99t-30 83.5t-59 45.5t-97 20q-67 0 -132 -25t-107 -75q-30 -36 -37.5 -75.5t-7.5 -135.5v-643h-154v641q0 254 -20 391z" />
<glyph unicode="n" horiz-adv-x="1150" d="M158 1032h151q5 -24 11 -78.5t6 -70.5q44 63 114 105t130 56.5t114 14.5q117 0 194 -51t93 -164q12 -82 12 -236v-608h-152v580v9q0 87 -1.5 127.5t-11.5 96.5t-31 80t-60.5 42.5t-99.5 18.5q-73 0 -141.5 -31t-108.5 -89q-28 -41 -36.5 -82.5t-8.5 -130.5v-621h-154v641 q0 254 -20 391z" />
<glyph unicode="o" horiz-adv-x="1110" d="M102 516q0 263 123 403t344 140q228 0 333.5 -129.5t105.5 -411.5q0 -262 -112 -402.5t-345 -140.5q-220 0 -334.5 138t-114.5 403zM262 514q0 -448 297 -448q154 0 221.5 118t67.5 336q0 232 -67 339.5t-216 107.5q-146 0 -224.5 -112.5t-78.5 -340.5z" />
<glyph unicode="p" horiz-adv-x="1130" d="M158 1032h149q12 -60 19 -121q126 144 313 144t288 -133.5t101 -391.5q0 -93 -14 -171.5t-37 -134.5t-56.5 -100t-69.5 -71t-78.5 -44.5t-82 -24.5t-80.5 -7q-174 0 -280 93v-519h-154v1242q0 120 -18 239zM328 506q0 -180 9.5 -252t43.5 -109q67 -75 213 -75 q129 0 201.5 111.5t72.5 346.5q0 435 -260 435q-105 0 -192 -68q-39 -31 -56.5 -68.5t-24.5 -107.5t-7 -213z" />
<glyph unicode="q" horiz-adv-x="1153" d="M102 489q0 283 114 423.5t316 140.5q199 0 314 -129q0 10 10 108h135q-8 -101 -8 -274v-1207h-152v582q-60 -74 -145 -115t-184 -41q-194 0 -297 129t-103 383zM262 492q0 -211 75 -314.5t210 -103.5q72 0 136 33.5t105 101.5q43 69 43 315q0 230 -40 303 q-73 131 -234 131q-141 0 -218 -113.5t-77 -352.5z" />
<glyph unicode="r" horiz-adv-x="739" d="M158 1032h151q17 -83 17 -151q37 80 110.5 126t147.5 46q58 0 110 -15v-141q-57 25 -133 25q-114 0 -174 -82q-55 -75 -55 -219v-621h-154v719q0 179 -20 313z" />
<glyph unicode="s" horiz-adv-x="798" d="M68 29v133q154 -84 278 -84q121 0 175 46.5t54 133.5q0 67 -43 109.5t-137 81.5l-88 36q-213 91 -213 285q0 134 93.5 211.5t258.5 77.5q135 0 242 -35v-127q-122 61 -246 61q-85 0 -142.5 -46t-57.5 -130q0 -56 33.5 -95.5t103.5 -70.5l108 -47q136 -61 191 -125.5 t55 -169.5q0 -143 -101 -222t-286 -79q-134 0 -278 56z" />
<glyph unicode="t" horiz-adv-x="638" d="M45 940v92h158q4 116 14 266h139v-266h232v-92h-232v-629q0 -110 21 -161q12 -27 43.5 -42.5t73.5 -15.5q76 0 131 19v-103q-79 -22 -160 -22q-172 0 -227 104q-22 38 -28.5 86.5t-6.5 132.5v631h-158z" />
<glyph unicode="u" horiz-adv-x="1153" d="M168 422v610h154v-567q0 -194 18 -260q35 -125 190 -125q68 0 134.5 25.5t109.5 76.5q32 35 39.5 72.5t7.5 142.5v635h152v-684q0 -197 20 -348h-153q-15 77 -17 119q-123 -146 -346 -146q-116 0 -190.5 48t-100.5 161q-18 76 -18 240z" />
<glyph unicode="v" horiz-adv-x="993" d="M33 1032h170q196 -540 311 -882q18 60 34.5 112t44.5 134t49.5 143.5t75.5 216t97 276.5h152l-400 -1032h-145z" />
<glyph unicode="w" horiz-adv-x="1497" d="M55 1032h168q172 -685 213 -872q85 323 256 872h148q198 -635 260 -870q58 283 205 870h151l-299 -1032h-151q-220 719 -254 852q-44 -163 -265 -852h-149z" />
<glyph unicode="x" horiz-adv-x="944" d="M29 0l358 516l-342 516h186q199 -312 250 -399q19 32 43.5 71t84 132t124.5 196h158l-344 -489l366 -543h-190q-85 130 -143.5 221t-83 130t-41.5 65q-19 -30 -48.5 -74.5t-90 -137.5t-132.5 -204h-155z" />
<glyph unicode="y" horiz-adv-x="985" d="M31 1032h172q256 -691 334 -926q174 588 282 926h148l-385 -1132q-55 -161 -86 -216q-59 -105 -160 -134q-47 -13 -109 -13q-47 0 -100 12v111q44 -14 96 -14q86 0 137 53q50 50 97 205l30 96h-57z" />
<glyph unicode="z" horiz-adv-x="933" d="M63 0v74q485 690 613 864h-572v94h756v-82q-464 -658 -610 -856h627v-94h-814z" />
<glyph unicode="{" horiz-adv-x="653" d="M84 537v75q49 12 78.5 26t51.5 35.5t32.5 58.5t15 85t4.5 125v240q0 99 23 167.5t69 106.5t103.5 54t136.5 16h33v-84h-25q-35 0 -60.5 -4.5t-51.5 -19.5t-42.5 -40.5t-27 -70t-10.5 -105.5v-254q0 -54 -3 -97t-11.5 -76.5t-16 -58t-24 -44.5t-28 -32t-35.5 -24.5 t-39 -19t-46 -18.5q70 -17 112 -52.5t66.5 -115.5t24.5 -211v-250q0 -61 10.5 -105.5t27 -70t42.5 -40.5t51.5 -19.5t60.5 -4.5h25v-84h-33q-79 0 -137 16t-103.5 54t-68.5 106.5t-23 167.5v238q0 80 -6 133.5t-18 89.5t-35.5 57t-50.5 32t-72 18z" />
<glyph unicode="|" horiz-adv-x="475" d="M170 -397v1943h135v-1943h-135z" />
<glyph unicode="}" horiz-adv-x="653" d="M25 -291h24q43 0 73.5 8.5t59.5 32t43.5 73.5t14.5 126v254q0 62 5 110t12 82t23 60.5t28.5 42.5t38.5 31.5t43 23t52 20.5q-69 17 -110.5 52t-66.5 115.5t-25 211.5v250q0 76 -14.5 126t-43.5 73.5t-59.5 32t-73.5 8.5h-24v84h32q79 0 136.5 -16t103.5 -54.5t69 -107 t23 -168.5v-236q0 -100 8.5 -160t31.5 -95.5t54 -50.5t86 -24v-75q-80 -19 -116.5 -50t-50 -92t-13.5 -188v-240q0 -99 -23.5 -167.5t-69.5 -106.5t-103.5 -54t-135.5 -16h-32v84z" />
<glyph unicode="~" horiz-adv-x="1517" d="M180 559q160 221 338 221q60 0 118 -18t173 -84q66 -37 107 -51.5t79 -14.5q66 0 123 38t119 132l100 -80q-80 -115 -161.5 -172t-180.5 -57q-102 0 -245 80q-166 94 -232 94q-65 0 -121.5 -37t-117.5 -125z" />
<glyph unicode="&#xa1;" horiz-adv-x="589" d="M209 938q0 55 29 83t81 28q50 0 79.5 -27.5t29.5 -83.5q0 -58 -30.5 -86.5t-82.5 -28.5q-49 0 -77.5 28t-28.5 87zM227 -414q0 16 25 1028h129q25 -937 25 -1028h-179z" />
<glyph unicode="&#xa2;" horiz-adv-x="1003" d="M135 500q0 493 410 532v203h104v-199q148 -3 246 -43v-119q-93 55 -246 62v-850q143 9 252 70v-109q-89 -49 -252 -61v-193h-104v193q-203 11 -306.5 134.5t-103.5 379.5zM297 510q0 -377 248 -418v836q-248 -49 -248 -418z" />
<glyph unicode="&#xa3;" horiz-adv-x="1191" d="M164 0v94q149 70 201.5 139t52.5 160q0 13 -2.5 29.5t-7.5 38t-9 37.5t-11.5 44.5t-10.5 41.5h-197v98h156q-62 202 -62 324q0 191 113 299t318 108q184 0 313 -57v-125q-81 41 -150 62.5t-155 21.5q-129 0 -203 -76t-74 -205q0 -142 70 -352h381v-98h-352 q26 -99 26 -183q0 -76 -38 -133t-136 -125h700v-143h-923z" />
<glyph unicode="&#xa4;" horiz-adv-x="1105" d="M80 1092l110 96l105 -141q98 86 262 86q77 0 148.5 -21.5t107.5 -60.5l98 133l107 -92l-137 -111q82 -102 82 -272q0 -169 -82 -269l139 -116l-105 -95l-102 142q-40 -37 -117 -60.5t-145 -23.5q-78 0 -149.5 19.5t-110.5 58.5l-103 -136l-98 99l133 106q-84 99 -84 275 q0 162 82 266zM285 713q0 -165 71 -246.5t197 -81.5q119 0 190.5 84.5t71.5 239.5q0 163 -70 245t-192 82q-123 0 -195.5 -81.5t-72.5 -241.5z" />
<glyph unicode="&#xa5;" horiz-adv-x="1282" d="M55 1382h195q229 -400 292.5 -513.5t102.5 -198.5q29 53 69 123t134 234t203 355h176l-350 -577h202v-92h-268l-98 -158v-27h366v-92h-366v-436h-162v436h-367v92h367v27l-94 158h-273v92h219z" />
<glyph unicode="&#xa6;" horiz-adv-x="477" d="M172 -276v718h133v-718h-133zM172 727v719h133v-719h-133z" />
<glyph unicode="&#xa7;" horiz-adv-x="985" d="M80 -57q89 -48 184.5 -74.5t163.5 -26.5q133 0 200.5 52t67.5 143q0 67 -56 116q-35 31 -169 109l-149 90q-125 74 -174.5 136.5t-49.5 154.5q0 98 55 170.5t146 104.5q-68 47 -98.5 110.5t-30.5 153.5q0 55 21.5 104.5t65 91t117.5 66t171 24.5q80 0 163 -16.5 t138 -40.5v-125q-58 25 -94.5 39.5t-98 29.5t-114.5 15q-108 0 -168 -47.5t-60 -138.5q0 -71 45 -114t181 -120l145 -84q121 -68 171 -137.5t50 -157.5q0 -86 -52.5 -161t-137.5 -105q78 -63 105.5 -120t27.5 -134q0 -147 -115 -228t-303 -81q-192 0 -348 70v131zM240 670 q0 -51 25 -90t81 -78q87 -61 209 -117q28 -14 68 -14q48 0 93.5 52.5t45.5 137.5q0 32 -16 60.5t-33.5 44.5t-50.5 41q-26 19 -55 38t-44 27.5t-52.5 29.5t-45.5 25q-39 23 -68 23q-62 0 -109.5 -52t-47.5 -128z" />
<glyph unicode="&#xa8;" horiz-adv-x="452" d="M-47 1350q0 98 94 98q43 0 66.5 -20.5t23.5 -77.5q0 -95 -94 -95q-43 0 -66.5 21t-23.5 74zM315 1350q0 98 93 98q45 0 67.5 -20.5t22.5 -77.5q0 -95 -92 -95q-44 0 -67.5 21t-23.5 74z" />
<glyph unicode="&#xa9;" horiz-adv-x="1714" d="M98 727q0 155 59.5 294t161.5 239t243.5 158.5t299.5 58.5q154 0 293.5 -58t240.5 -157t160.5 -237t59.5 -290q0 -159 -58.5 -301.5t-158.5 -244t-239 -161t-294 -59.5q-162 0 -305 58.5t-244.5 159.5t-160 241.5t-58.5 298.5zM182 725q0 -187 90.5 -345t248.5 -250.5 t347 -92.5q184 0 337 91t240 247.5t87 343.5q0 193 -85.5 351.5t-239 249.5t-343.5 91q-143 0 -270 -53.5t-217 -145.5t-142.5 -218.5t-52.5 -268.5zM449 707q0 252 122 381t338 129q144 0 260 -46v-110q-104 55 -254 55q-146 0 -230.5 -99.5t-84.5 -299.5q0 -195 82 -294 t223 -99q142 0 269 69v-104q-118 -62 -289 -62q-206 0 -321 120t-115 360z" />
<glyph unicode="&#xaa;" horiz-adv-x="696" d="M55 760q0 121 100.5 171t293.5 50h36v53q0 84 -27.5 117t-103.5 33q-126 0 -233 -62v84q53 26 122 43t124 17q123 0 176 -39q35 -27 51 -69t16 -124v-305q0 -89 11 -156h-119q-8 32 -8 74q-82 -88 -207 -88q-105 0 -168.5 55.5t-63.5 145.5zM180 764q0 -60 38 -93.5 t101 -33.5q87 0 138 57q28 26 28 88v125h-45q-135 0 -197.5 -35t-62.5 -108z" />
<glyph unicode="&#xab;" horiz-adv-x="968" d="M100 520v96l375 383v-163l-246 -254l246 -256v-193zM483 520v96l375 383v-163l-246 -254l246 -256v-193z" />
<glyph unicode="&#xac;" horiz-adv-x="1517" d="M164 563v131h1112v-620h-135v489h-977z" />
<glyph unicode="&#xad;" horiz-adv-x="696" d="M90 498v145h516v-145h-516z" />
<glyph unicode="&#xae;" horiz-adv-x="1751" d="M123 721q0 157 58 297t158 240t240.5 158.5t299.5 58.5q161 0 303 -58t242.5 -158t159 -240t58.5 -298q0 -157 -58 -296.5t-158.5 -239t-242 -157t-302.5 -57.5q-160 0 -301 58t-241 157.5t-158 238.5t-58 296zM205 721q0 -190 86.5 -344t241.5 -242t348 -88 q194 0 349.5 88t242 242t86.5 344q0 191 -87 346t-243 243.5t-350 88.5q-143 0 -269 -52t-214.5 -142t-139.5 -216t-51 -268zM553 272v920h317q142 0 224 -25q135 -42 135 -221q0 -158 -172 -217q64 -20 96.5 -62t54.5 -132l64 -263h-146l-53 244q-15 65 -36 98.5t-63 51.5 t-114 18h-166v-412h-141zM694 778h162q121 0 173 33.5t52 130.5q0 93 -52 124.5t-165 31.5h-170v-320z" />
<glyph unicode="&#xaf;" horiz-adv-x="452" d="M-61 1239v127h575v-127h-575z" />
<glyph unicode="&#xb0;" horiz-adv-x="694" d="M57 1196q0 136 83 214.5t216 78.5q130 0 205.5 -76.5t75.5 -214.5q0 -135 -80.5 -214t-212.5 -79q-123 0 -205 78t-82 213zM180 1192q0 -95 47 -146t123 -51q81 0 126.5 51.5t45.5 149.5q0 99 -46.5 151t-127.5 52q-75 0 -121.5 -53t-46.5 -154z" />
<glyph unicode="&#xb1;" horiz-adv-x="1517" d="M203 0v129h1112v-129h-1112zM203 731v131h487v477h137v-477h488v-131h-488v-477h-135v477h-489z" />
<glyph unicode="&#xb2;" horiz-adv-x="800" d="M82 922v82q133 112 214 186.5t159 159.5q80 82 80 196q0 75 -40.5 117.5t-125.5 42.5q-99 0 -224 -57v98q101 49 232 49q148 0 220.5 -63t72.5 -179q0 -125 -107 -241q-140 -147 -323 -279q129 2 440 2v-114h-598z" />
<glyph unicode="&#xb3;" horiz-adv-x="800" d="M125 940v100q109 -51 231 -51q100 0 144.5 47t44.5 121q0 158 -199 158h-70v90h68q186 0 186 156q0 145 -159 145q-99 0 -221 -57v96q119 51 229 51q145 0 215 -56.5t70 -174.5q0 -71 -38 -122t-110 -77q77 -19 121.5 -71t44.5 -132q0 -138 -89 -201t-237 -63 q-137 0 -231 41z" />
<glyph unicode="&#xb4;" horiz-adv-x="452" d="M6 1200l217 281h219l-313 -281h-123z" />
<glyph unicode="&#xb5;" horiz-adv-x="1150" d="M166 -432v1464h153v-631q0 -64 4 -109t16.5 -88t34.5 -69t58.5 -41.5t87.5 -15.5q71 0 140 23t112 69q33 35 40 69.5t7 141.5v651h152v-641q0 -216 14 -391h-151q-2 16 -5.5 59.5t-5.5 59.5q-111 -146 -315 -146q-58 0 -111.5 20.5t-81.5 59.5v-485h-149z" />
<glyph unicode="&#xb6;" horiz-adv-x="1155" d="M96 952q0 113 31.5 200.5t98 155t180 103t268.5 35.5h293v-1741h-107v1663h-186v-1663h-103v784q-115 0 -206.5 36.5t-149.5 100t-88.5 147t-30.5 179.5z" />
<glyph unicode="&#xb7;" horiz-adv-x="452" d="M117 569q0 57 31 86t81 29q107 0 107 -115q0 -54 -29.5 -82t-81.5 -28q-49 0 -78.5 27t-29.5 83z" />
<glyph unicode="&#xb8;" horiz-adv-x="452" d="M61 -387q44 -10 80 -10q63 0 89 26.5t26 77.5q0 49 -26.5 76t-79.5 27q-16 0 -66 -5l88 215h76l-60 -145q110 0 156.5 -39.5t46.5 -122.5q0 -184 -237 -184q-53 0 -93 8v76z" />
<glyph unicode="&#xb9;" horiz-adv-x="800" d="M176 1544v96q97 51 211 132h105v-850h-127v731q-99 -65 -189 -109z" />
<glyph unicode="&#xba;" horiz-adv-x="733" d="M61 909q0 178 82 267.5t230 89.5q152 0 225.5 -87t73.5 -270q0 -169 -77.5 -261.5t-229.5 -92.5q-148 0 -226 90t-78 264zM188 907q0 -149 44 -211.5t137 -62.5q92 0 135 69.5t43 208.5q0 148 -43 210.5t-139 62.5q-177 0 -177 -277z" />
<glyph unicode="&#xbb;" horiz-adv-x="968" d="M111 133v162l245 254l-245 258v192l374 -387v-96zM496 133v162l245 254l-245 258v192l372 -387v-96z" />
<glyph unicode="&#xbc;" horiz-adv-x="1699" d="M133 1157v96q102 54 211 131h105v-849h-127v731q-99 -65 -189 -109zM371 0l676 1384h122l-675 -1384h-123zM862 205v84l402 561h135v-545h137v-100h-137v-205h-127v205h-410zM981 305h291q0 328 2 420q-92 -141 -293 -420z" />
<glyph unicode="&#xbd;" horiz-adv-x="1699" d="M133 1157v96q102 54 211 131h105v-849h-127v731q-99 -65 -189 -109zM371 0l676 1384h122l-675 -1384h-123zM948 0v82q133 112 214 186.5t159 159.5q80 82 80 197q0 74 -40 116.5t-126 42.5q-98 0 -223 -57v98q101 49 231 49q149 0 221 -62.5t72 -178.5q0 -127 -106 -242 q-135 -142 -324 -278q129 2 440 2v-115h-598z" />
<glyph unicode="&#xbe;" horiz-adv-x="1699" d="M98 553v100q109 -51 232 -51q100 0 144 47t44 121q0 158 -199 158h-69v90h67q55 0 93.5 14t58 38t27.5 49t8 55q0 145 -160 145q-99 0 -221 -57v96q119 51 229 51q145 0 215 -56.5t70 -174.5q0 -71 -38 -122t-110 -77q77 -19 121.5 -71t44.5 -132q0 -138 -88.5 -201 t-236.5 -63q-138 0 -232 41zM455 0l675 1384h123l-675 -1384h-123zM907 205v84l402 561h135v-545h137v-100h-137v-205h-127v205h-410zM1026 305h291q0 328 2 420q-92 -141 -293 -420z" />
<glyph unicode="&#xbf;" horiz-adv-x="897" d="M70 -86q0 106 48 188t185 199q83 70 112 141.5t31 171.5h127q0 -61 -2.5 -92t-14 -74t-39 -81t-73.5 -82q-196 -182 -196 -359q0 -126 61 -183.5t178 -57.5q161 0 318 79v-110q-160 -78 -332 -78q-403 0 -403 338zM401 938q0 54 30 82.5t81 28.5q50 0 79.5 -27.5 t29.5 -83.5q0 -58 -30.5 -86.5t-82.5 -28.5q-49 0 -78 28t-29 87z" />
<glyph unicode="&#xc0;" horiz-adv-x="1228" d="M18 0l533 1446h164l495 -1446h-178l-170 502h-514l-176 -502h-154zM309 1851h242l256 -282h-137zM383 604h446q-66 199 -110 335t-69.5 215.5t-37.5 117.5q-147 -435 -229 -668z" />
<glyph unicode="&#xc1;" horiz-adv-x="1228" d="M18 0l533 1446h164l495 -1446h-178l-170 502h-514l-176 -502h-154zM383 604h446q-66 199 -110 335t-69.5 215.5t-37.5 117.5q-147 -435 -229 -668zM444 1569l256 282h244l-360 -282h-140z" />
<glyph unicode="&#xc2;" horiz-adv-x="1228" d="M18 0l533 1446h164l495 -1446h-178l-170 502h-514l-176 -502h-154zM285 1569l295 280h125l288 -280h-174l-198 164l-199 -164h-137zM383 604h446q-66 199 -110 335t-69.5 215.5t-37.5 117.5q-147 -435 -229 -668z" />
<glyph unicode="&#xc3;" horiz-adv-x="1228" d="M18 0l533 1446h164l495 -1446h-178l-170 502h-514l-176 -502h-154zM289 1606q44 95 93.5 141.5t113.5 46.5q46 0 131 -43l59 -31q44 -20 82 -20q43 0 68.5 22.5t48.5 73.5l82 -27q-41 -102 -89.5 -149t-109.5 -47q-56 0 -127 35l-63 30q-67 31 -93 31q-69 0 -118 -96z M383 604h446q-66 199 -110 335t-69.5 215.5t-37.5 117.5q-147 -435 -229 -668z" />
<glyph unicode="&#xc4;" horiz-adv-x="1228" d="M18 0l533 1446h164l495 -1446h-178l-170 502h-514l-176 -502h-154zM342 1669q0 100 92 100q43 0 66.5 -21.5t23.5 -78.5q0 -94 -94 -94q-42 0 -65 21t-23 73zM383 604h446q-66 199 -110 335t-69.5 215.5t-37.5 117.5q-147 -435 -229 -668zM721 1669q0 100 94 100 q43 0 66.5 -21.5t23.5 -78.5q0 -94 -94 -94q-90 0 -90 94z" />
<glyph unicode="&#xc5;" horiz-adv-x="1228" d="M18 0l533 1446h164l495 -1446h-178l-170 502h-514l-176 -502h-154zM383 604h446q-66 199 -110 335t-69.5 215.5t-37.5 117.5q-147 -435 -229 -668zM428 1741q0 92 61.5 146.5t143.5 54.5q86 0 142 -50.5t56 -144.5q0 -97 -57 -153t-145 -56q-86 0 -143.5 53.5 t-57.5 149.5zM522 1741q0 -135 111 -135q49 0 77.5 34.5t28.5 104.5q0 63 -30 95t-80 32q-47 0 -77 -33.5t-30 -97.5z" />
<glyph unicode="&#xc6;" horiz-adv-x="1884" d="M-16 0l911 1446h887v-100h-658v-541h621v-103h-621v-602h678v-100h-839v502h-510l-306 -502h-163zM520 602h443v735q-129 -220 -443 -735z" />
<glyph unicode="&#xc7;" horiz-adv-x="1193" d="M111 700q0 386 171 581.5t478 195.5q187 0 352 -62v-131q-157 82 -348 82q-479 0 -479 -651q0 -625 458 -625q219 0 375 96v-131q-63 -33 -165 -58t-218 -26l-39 -102q109 0 160 -42t51 -128q0 -98 -64.5 -146.5t-183.5 -48.5q-49 0 -94 9v81q46 -10 82 -10q66 0 93.5 28 t27.5 81q0 51 -29 78.5t-84 27.5q-21 0 -67 -4l69 180q-260 20 -403 197t-143 528z" />
<glyph unicode="&#xc8;" horiz-adv-x="1105" d="M182 0v1446h819v-100h-655v-541h623v-103h-623v-602h678v-100h-842zM285 1851h241l256 -282h-137z" />
<glyph unicode="&#xc9;" horiz-adv-x="1105" d="M182 0v1446h819v-100h-655v-541h623v-103h-623v-602h678v-100h-842zM453 1569l256 282h243l-360 -282h-139z" />
<glyph unicode="&#xca;" horiz-adv-x="1105" d="M182 0v1446h819v-100h-655v-541h623v-103h-623v-602h678v-100h-842zM229 1569l295 280h125l289 -280h-174l-199 164l-198 -164h-138z" />
<glyph unicode="&#xcb;" horiz-adv-x="1105" d="M182 0v1446h819v-100h-655v-541h623v-103h-623v-602h678v-100h-842zM340 1669q0 100 92 100q43 0 66.5 -21.5t23.5 -78.5q0 -94 -94 -94q-42 0 -65 21t-23 73zM719 1669q0 100 94 100q43 0 66.5 -21.5t23.5 -78.5q0 -94 -94 -94q-90 0 -90 94z" />
<glyph unicode="&#xcc;" horiz-adv-x="528" d="M-53 1851h241l256 -282h-137zM182 0v1446h164v-1446h-164z" />
<glyph unicode="&#xcd;" horiz-adv-x="528" d="M92 1569l256 282h244l-361 -282h-139zM182 0v1446h164v-1446h-164z" />
<glyph unicode="&#xce;" horiz-adv-x="528" d="M-86 1569l295 280h125l289 -280h-174l-199 164l-199 -164h-137zM182 0v1446h164v-1446h-164z" />
<glyph unicode="&#xcf;" horiz-adv-x="528" d="M-16 1669q0 100 92 100q43 0 66.5 -21.5t23.5 -78.5q0 -94 -94 -94q-42 0 -65 21t-23 73zM182 0v1446h164v-1446h-164zM362 1669q0 100 95 100q43 0 66.5 -21.5t23.5 -78.5q0 -94 -94 -94q-91 0 -91 94z" />
<glyph unicode="&#xd0;" horiz-adv-x="1406" d="M29 711v104h153v631h377q237 0 377 -41q358 -100 358 -662q0 -91 -10.5 -173t-36.5 -166t-66.5 -150.5t-105 -120.5t-147.5 -82q-83 -29 -164 -40t-236 -11h-346v711h-153zM346 100h215q241 0 354 78q97 67 151 211t54 354q0 429 -225 545q-113 58 -342 58h-207v-531h447 v-104h-447v-611z" />
<glyph unicode="&#xd1;" horiz-adv-x="1456" d="M182 0v1446h189q405 -614 553.5 -847t224.5 -370q-8 391 -8 1217h133v-1446h-162q-195 305 -363.5 566.5t-233 361.5t-116.5 182t-92 147q6 -295 6 -1257h-131zM408 1606q44 95 93 141.5t113 46.5q46 0 131 -43l60 -31q44 -20 82 -20q43 0 68.5 22.5t48.5 73.5l81 -27 q-41 -103 -89 -149.5t-109 -46.5q-56 0 -127 35l-64 30q-67 31 -92 31q-70 0 -119 -96z" />
<glyph unicode="&#xd2;" horiz-adv-x="1427" d="M113 723q0 378 163 566t455 188q298 0 441 -182t143 -550q0 -389 -151.5 -581.5t-461.5 -192.5q-296 0 -442.5 187t-146.5 565zM285 727q0 -175 28.5 -302t84.5 -203.5t132 -112t177 -35.5q222 0 329 157.5t107 497.5q0 330 -99.5 487.5t-320.5 157.5q-438 0 -438 -647z M387 1851h242l256 -282h-137z" />
<glyph unicode="&#xd3;" horiz-adv-x="1427" d="M113 723q0 378 163 566t455 188q298 0 441 -182t143 -550q0 -389 -151.5 -581.5t-461.5 -192.5q-296 0 -442.5 187t-146.5 565zM285 727q0 -175 28.5 -302t84.5 -203.5t132 -112t177 -35.5q222 0 329 157.5t107 497.5q0 330 -99.5 487.5t-320.5 157.5q-438 0 -438 -647z M510 1569l256 282h244l-361 -282h-139z" />
<glyph unicode="&#xd4;" horiz-adv-x="1427" d="M113 723q0 378 163 566t455 188q298 0 441 -182t143 -550q0 -389 -151.5 -581.5t-461.5 -192.5q-296 0 -442.5 187t-146.5 565zM285 727q0 -175 28.5 -302t84.5 -203.5t132 -112t177 -35.5q222 0 329 157.5t107 497.5q0 330 -99.5 487.5t-320.5 157.5q-438 0 -438 -647z M336 1569l295 280h125l288 -280h-174l-198 164l-199 -164h-137z" />
<glyph unicode="&#xd5;" horiz-adv-x="1427" d="M113 723q0 378 163 566t455 188q298 0 441 -182t143 -550q0 -389 -151.5 -581.5t-461.5 -192.5q-296 0 -442.5 187t-146.5 565zM285 727q0 -175 28.5 -302t84.5 -203.5t132 -112t177 -35.5q222 0 329 157.5t107 497.5q0 330 -99.5 487.5t-320.5 157.5q-438 0 -438 -647z M373 1606q44 95 93.5 141.5t113.5 46.5q46 0 131 -43l59 -31q44 -20 82 -20q43 0 68.5 22.5t48.5 73.5l82 -27q-41 -102 -89.5 -149t-109.5 -47q-56 0 -127 35l-63 30q-67 31 -93 31q-69 0 -118 -96z" />
<glyph unicode="&#xd6;" horiz-adv-x="1427" d="M113 723q0 378 163 566t455 188q298 0 441 -182t143 -550q0 -389 -151.5 -581.5t-461.5 -192.5q-296 0 -442.5 187t-146.5 565zM285 727q0 -175 28.5 -302t84.5 -203.5t132 -112t177 -35.5q222 0 329 157.5t107 497.5q0 330 -99.5 487.5t-320.5 157.5q-438 0 -438 -647z M432 1669q0 100 92 100q43 0 66.5 -21.5t23.5 -78.5q0 -94 -94 -94q-42 0 -65 21t-23 73zM811 1669q0 100 94 100q43 0 66.5 -21.5t23.5 -78.5q0 -94 -94 -94q-90 0 -90 94z" />
<glyph unicode="&#xd7;" horiz-adv-x="1517" d="M295 1001l94 97l371 -375l375 373l90 -92l-375 -373l369 -365l-93 -96l-368 365l-367 -367l-90 92l367 369z" />
<glyph unicode="&#xd8;" horiz-adv-x="1427" d="M113 723q0 378 163 566t455 188q166 0 289 -60l102 187l101 -50l-111 -198q203 -173 203 -611q0 -389 -151.5 -581.5t-461.5 -192.5q-183 0 -313 74l-94 -174l-98 49l104 191q-188 185 -188 612zM285 727q0 -315 94 -475l579 1055q-91 67 -235 67q-438 0 -438 -647z M453 160q99 -86 254 -86q222 0 329 157.5t107 497.5q0 339 -105 494z" />
<glyph unicode="&#xd9;" horiz-adv-x="1435" d="M178 582v864h164v-860q0 -209 39 -318q31 -89 122 -137.5t224 -48.5q89 0 164.5 19t114.5 57q58 53 81 143.5t23 273.5v871h147v-860q0 -162 -14.5 -248.5t-52.5 -155.5q-54 -101 -177.5 -157t-295.5 -56t-301.5 58.5t-184.5 183.5q-53 118 -53 371zM385 1851h242 l256 -282h-138z" />
<glyph unicode="&#xda;" horiz-adv-x="1435" d="M178 582v864h164v-860q0 -209 39 -318q31 -89 122 -137.5t224 -48.5q89 0 164.5 19t114.5 57q58 53 81 143.5t23 273.5v871h147v-860q0 -162 -14.5 -248.5t-52.5 -155.5q-54 -101 -177.5 -157t-295.5 -56t-301.5 58.5t-184.5 183.5q-53 118 -53 371zM549 1569l256 282 h244l-361 -282h-139z" />
<glyph unicode="&#xdb;" horiz-adv-x="1435" d="M178 582v864h164v-860q0 -209 39 -318q31 -89 122 -137.5t224 -48.5q89 0 164.5 19t114.5 57q58 53 81 143.5t23 273.5v871h147v-860q0 -162 -14.5 -248.5t-52.5 -155.5q-54 -101 -177.5 -157t-295.5 -56t-301.5 58.5t-184.5 183.5q-53 118 -53 371zM375 1569l295 280 h125l288 -280h-174l-198 164l-199 -164h-137z" />
<glyph unicode="&#xdc;" horiz-adv-x="1435" d="M178 582v864h164v-860q0 -209 39 -318q31 -89 122 -137.5t224 -48.5q89 0 164.5 19t114.5 57q58 53 81 143.5t23 273.5v871h147v-860q0 -162 -14.5 -248.5t-52.5 -155.5q-54 -101 -177.5 -157t-295.5 -56t-301.5 58.5t-184.5 183.5q-53 118 -53 371zM438 1669 q0 100 92 100q43 0 67 -21.5t24 -78.5q0 -94 -95 -94q-42 0 -65 21t-23 73zM817 1669q0 100 94 100q43 0 66.5 -21.5t23.5 -78.5q0 -94 -94 -94q-90 0 -90 94z" />
<glyph unicode="&#xdd;" horiz-adv-x="1269" d="M31 1446h202q327 -565 412 -721q10 17 124 216.5t290 504.5h188l-536 -852v-594h-164v594zM467 1569l256 282h244l-361 -282h-139z" />
<glyph unicode="&#xde;" horiz-adv-x="1263" d="M182 0v1446h164v-285h272q225 0 332 -51q99 -46 152 -137t53 -215q0 -98 -26 -177t-88.5 -140t-157.5 -83q-116 -26 -283 -26h-254v-332h-164zM346 438h268q188 0 258 45q55 33 83 104.5t28 168.5q0 83 -27.5 154t-85.5 104q-71 43 -243 43h-281v-619z" />
<glyph unicode="&#xdf;" horiz-adv-x="1118" d="M180 0v1069q0 188 56 281q107 174 356 174q178 0 265 -91t87 -251q0 -283 -242 -361q155 -20 234.5 -128.5t79.5 -289.5q0 -206 -93.5 -313.5t-277.5 -107.5q-103 0 -180 18v104q64 -28 160 -28q109 0 170 83.5t61 237.5q0 70 -7.5 121.5t-29.5 99.5t-59 78t-98.5 48 t-145.5 18h-37v94h39q264 0 264 322q0 117 -53.5 185.5t-159.5 68.5q-66 0 -120 -27t-80 -82q-35 -76 -35 -276v-1047h-154z" />
<glyph unicode="&#xe0;" horiz-adv-x="1052" d="M96 291q0 154 123.5 233.5t386.5 79.5q55 0 129 -4v92q0 133 -47 193q-51 65 -170 65q-171 0 -323 -84v119q158 74 342 74q182 0 266 -79t84 -271v-482q0 -146 26 -227h-149q-22 75 -25 143q-93 -168 -313 -168q-153 0 -241.5 88t-88.5 228zM244 1481h219l213 -281h-137z M252 295q0 -99 54 -157t151 -58q141 0 229 110q49 57 49 181v145q-29 2 -100 2q-383 0 -383 -223z" />
<glyph unicode="&#xe1;" horiz-adv-x="1052" d="M96 291q0 154 123.5 233.5t386.5 79.5q55 0 129 -4v92q0 133 -47 193q-51 65 -170 65q-171 0 -323 -84v119q158 74 342 74q182 0 266 -79t84 -271v-482q0 -146 26 -227h-149q-22 75 -25 143q-93 -168 -313 -168q-153 0 -241.5 88t-88.5 228zM252 295q0 -99 54 -157 t151 -58q141 0 229 110q49 57 49 181v145q-29 2 -100 2q-383 0 -383 -223zM399 1200l217 281h220l-314 -281h-123z" />
<glyph unicode="&#xe2;" horiz-adv-x="1052" d="M96 291q0 154 123.5 233.5t386.5 79.5q55 0 129 -4v92q0 133 -47 193q-51 65 -170 65q-171 0 -323 -84v119q158 74 342 74q182 0 266 -79t84 -271v-482q0 -146 26 -227h-149q-22 75 -25 143q-93 -168 -313 -168q-153 0 -241.5 88t-88.5 228zM238 1200l233 311h137 l234 -311h-142l-172 207l-174 -207h-116zM252 295q0 -99 54 -157t151 -58q141 0 229 110q49 57 49 181v145q-29 2 -100 2q-383 0 -383 -223z" />
<glyph unicode="&#xe3;" horiz-adv-x="1052" d="M96 291q0 154 123.5 233.5t386.5 79.5q55 0 129 -4v92q0 133 -47 193q-51 65 -170 65q-171 0 -323 -84v119q158 74 342 74q182 0 266 -79t84 -271v-482q0 -146 26 -227h-149q-22 75 -25 143q-93 -168 -313 -168q-153 0 -241.5 88t-88.5 228zM213 1253q40 93 88.5 143 t99.5 50q49 0 127 -45l43 -23q54 -28 84 -28q64 0 111 98l80 -25q-75 -202 -189 -202q-60 0 -122 34l-48 25q-70 39 -92 39q-31 0 -55.5 -21.5t-52.5 -72.5zM252 295q0 -99 54 -157t151 -58q141 0 229 110q49 57 49 181v145q-29 2 -100 2q-383 0 -383 -223z" />
<glyph unicode="&#xe4;" horiz-adv-x="1052" d="M96 291q0 154 123.5 233.5t386.5 79.5q55 0 129 -4v92q0 133 -47 193q-51 65 -170 65q-171 0 -323 -84v119q158 74 342 74q182 0 266 -79t84 -271v-482q0 -146 26 -227h-149q-22 75 -25 143q-93 -168 -313 -168q-153 0 -241.5 88t-88.5 228zM252 295q0 -99 54 -157 t151 -58q141 0 229 110q49 57 49 181v145q-29 2 -100 2q-383 0 -383 -223zM254 1350q0 98 94 98q43 0 66.5 -20.5t23.5 -77.5q0 -95 -94 -95q-43 0 -66.5 21t-23.5 74zM616 1350q0 98 93 98q45 0 67.5 -20.5t22.5 -77.5q0 -95 -92 -95q-44 0 -67.5 21t-23.5 74z" />
<glyph unicode="&#xe5;" horiz-adv-x="1052" d="M96 291q0 154 123.5 233.5t386.5 79.5q55 0 129 -4v92q0 133 -47 193q-51 65 -170 65q-171 0 -323 -84v119q158 74 342 74q182 0 266 -79t84 -271v-482q0 -146 26 -227h-149q-22 75 -25 143q-93 -168 -313 -168q-153 0 -241.5 88t-88.5 228zM252 295q0 -99 54 -157 t151 -58q141 0 229 110q49 57 49 181v145q-29 2 -100 2q-383 0 -383 -223zM319 1372q0 100 62 153.5t149 53.5q91 0 148 -49.5t57 -151.5q0 -108 -58 -162.5t-151 -54.5q-91 0 -149 53t-58 158zM412 1372q0 -143 118 -143q115 0 115 147q0 135 -119 135q-51 0 -82.5 -33.5 t-31.5 -105.5z" />
<glyph unicode="&#xe6;" horiz-adv-x="1646" d="M88 279q0 91 38 154t114.5 100t179 53t242.5 16h77v105q0 87 -30 149q-46 98 -189 98q-199 0 -334 -82v101q67 43 164.5 64.5t181.5 21.5q113 0 197 -44t117 -141q53 84 139.5 134.5t190.5 50.5q136 0 216.5 -53.5t129.5 -151.5q51 -108 51 -303v-33h-682 q3 -442 326 -442q70 0 134.5 16t96 30.5t84.5 43.5v-115q-140 -78 -340 -78q-141 0 -234.5 51t-150.5 158q-62 -96 -160.5 -151.5t-220.5 -55.5q-159 0 -248.5 83.5t-89.5 220.5zM246 283q0 -96 59.5 -148.5t157.5 -52.5q99 0 182.5 56t114.5 153q-18 137 -21 227h-71 q-157 0 -252.5 -30t-132.5 -80t-37 -125zM895 604h508q0 72 -5.5 125t-21 100t-41.5 76.5t-67.5 46.5t-98.5 17q-40 0 -77 -10.5t-72.5 -37t-62 -67t-43.5 -105t-19 -145.5z" />
<glyph unicode="&#xe7;" horiz-adv-x="890" d="M102 500q0 278 125 418.5t355 140.5q142 0 247 -31v-135q-93 57 -249 57q-154 0 -236 -109t-82 -331q0 -216 87 -324t231 -108q123 0 256 72v-115q-118 -62 -283 -62l-39 -98q110 0 156.5 -39.5t46.5 -122.5q0 -184 -238 -184q-52 0 -92 8v76q44 -10 80 -10q63 0 89 26.5 t26 77.5q0 48 -27 75.5t-80 27.5q-15 0 -65 -5l69 172q-182 21 -279.5 150.5t-97.5 372.5z" />
<glyph unicode="&#xe8;" horiz-adv-x="1019" d="M102 520q0 259 116 399t329 140q100 0 170 -25.5t109.5 -67t70.5 -106.5q49 -106 49 -301v-41h-686q1 -217 86 -328.5t244 -111.5q67 0 128.5 14.5t97 30.5t89.5 45v-117q-144 -78 -340 -78q-231 0 -347 133.5t-116 413.5zM264 604h516q0 72 -5.5 123.5t-20.5 99.5 t-41 77.5t-69 47t-103 17.5q-41 0 -78.5 -11t-73 -37.5t-62 -67t-44 -104.5t-19.5 -145zM266 1481h219l213 -281h-137z" />
<glyph unicode="&#xe9;" horiz-adv-x="1019" d="M102 520q0 259 116 399t329 140q100 0 170 -25.5t109.5 -67t70.5 -106.5q49 -106 49 -301v-41h-686q1 -217 86 -328.5t244 -111.5q67 0 128.5 14.5t97 30.5t89.5 45v-117q-144 -78 -340 -78q-231 0 -347 133.5t-116 413.5zM264 604h516q0 72 -5.5 123.5t-20.5 99.5 t-41 77.5t-69 47t-103 17.5q-41 0 -78.5 -11t-73 -37.5t-62 -67t-44 -104.5t-19.5 -145zM399 1200l217 281h220l-314 -281h-123z" />
<glyph unicode="&#xea;" horiz-adv-x="1019" d="M102 520q0 259 116 399t329 140q100 0 170 -25.5t109.5 -67t70.5 -106.5q49 -106 49 -301v-41h-686q1 -217 86 -328.5t244 -111.5q67 0 128.5 14.5t97 30.5t89.5 45v-117q-144 -78 -340 -78q-231 0 -347 133.5t-116 413.5zM252 1200l233 311h138l233 -311h-141l-172 207 l-174 -207h-117zM264 604h516q0 72 -5.5 123.5t-20.5 99.5t-41 77.5t-69 47t-103 17.5q-41 0 -78.5 -11t-73 -37.5t-62 -67t-44 -104.5t-19.5 -145z" />
<glyph unicode="&#xeb;" horiz-adv-x="1019" d="M102 520q0 259 116 399t329 140q100 0 170 -25.5t109.5 -67t70.5 -106.5q49 -106 49 -301v-41h-686q1 -217 86 -328.5t244 -111.5q67 0 128.5 14.5t97 30.5t89.5 45v-117q-144 -78 -340 -78q-231 0 -347 133.5t-116 413.5zM264 604h516q0 72 -5.5 123.5t-20.5 99.5 t-41 77.5t-69 47t-103 17.5q-41 0 -78.5 -11t-73 -37.5t-62 -67t-44 -104.5t-19.5 -145zM272 1350q0 98 95 98q43 0 66.5 -20.5t23.5 -77.5q0 -95 -95 -95q-43 0 -66.5 21t-23.5 74zM635 1350q0 98 92 98q45 0 67.5 -20.5t22.5 -77.5q0 -95 -92 -95q-44 0 -67 21t-23 74z " />
<glyph unicode="&#xec;" horiz-adv-x="501" d="M-31 1481h219l213 -281h-137zM176 0v1032h166v-1032h-166z" />
<glyph unicode="&#xed;" horiz-adv-x="501" d="M123 1200l217 281h219l-313 -281h-123zM176 0v1032h166v-1032h-166z" />
<glyph unicode="&#xee;" horiz-adv-x="501" d="M-47 1200l233 311h138l233 -311h-141l-172 207l-174 -207h-117zM176 0v1032h166v-1032h-166z" />
<glyph unicode="&#xef;" horiz-adv-x="501" d="M-31 1350q0 98 94 98q44 0 67.5 -20.5t23.5 -77.5q0 -95 -95 -95q-43 0 -66.5 21t-23.5 74zM176 0v1032h166v-1032h-166zM332 1350q0 98 92 98q45 0 67.5 -20.5t22.5 -77.5q0 -95 -92 -95q-44 0 -67 21t-23 74z" />
<glyph unicode="&#xf0;" horiz-adv-x="1126" d="M102 494q0 261 121 405.5t350 144.5q87 0 163.5 -34t111.5 -97q-30 210 -184 355l-252 -146l-45 80l221 127q-115 81 -242 105l25 88q199 -37 331 -127l222 129l47 -76l-193 -113q126 -118 184 -308.5t58 -465.5q0 -280 -114.5 -433t-338.5 -153q-222 0 -343.5 134.5 t-121.5 384.5zM262 492q0 -203 81.5 -314.5t227.5 -111.5q151 0 219 118t68 355q0 117 -28.5 206.5t-93 145t-158.5 55.5q-83 0 -144.5 -32.5t-99 -93t-55 -142.5t-17.5 -186z" />
<glyph unicode="&#xf1;" horiz-adv-x="1150" d="M156 1032h151q5 -24 11 -78.5t6 -70.5q44 63 114 105t130 56.5t114 14.5q117 0 194 -51t93 -164q12 -82 12 -236v-608h-152v580v9q0 87 -1.5 127.5t-11.5 96.5t-31 80t-60.5 42.5t-99.5 18.5q-73 0 -141.5 -31t-108.5 -89q-28 -41 -36.5 -82.5t-8.5 -130.5v-621h-154v641 q0 254 -20 391zM258 1253q40 93 88.5 143t99.5 50q49 0 127 -45l43 -23q54 -28 84 -28q64 0 111 98l80 -25q-75 -202 -189 -202q-60 0 -122 34l-48 25q-70 39 -92 39q-31 0 -55.5 -21.5t-52.5 -72.5z" />
<glyph unicode="&#xf2;" horiz-adv-x="1110" d="M102 516q0 263 123 403t344 140q228 0 333.5 -129.5t105.5 -411.5q0 -262 -112 -402.5t-345 -140.5q-220 0 -334.5 138t-114.5 403zM242 1481h219l213 -281h-137zM262 514q0 -448 297 -448q154 0 221.5 118t67.5 336q0 232 -67 339.5t-216 107.5q-146 0 -224.5 -112.5 t-78.5 -340.5z" />
<glyph unicode="&#xf3;" horiz-adv-x="1110" d="M102 516q0 263 123 403t344 140q228 0 333.5 -129.5t105.5 -411.5q0 -262 -112 -402.5t-345 -140.5q-220 0 -334.5 138t-114.5 403zM262 514q0 -448 297 -448q154 0 221.5 118t67.5 336q0 232 -67 339.5t-216 107.5q-146 0 -224.5 -112.5t-78.5 -340.5zM416 1200l217 281 h219l-313 -281h-123z" />
<glyph unicode="&#xf4;" horiz-adv-x="1110" d="M102 516q0 263 123 403t344 140q228 0 333.5 -129.5t105.5 -411.5q0 -262 -112 -402.5t-345 -140.5q-220 0 -334.5 138t-114.5 403zM248 1200l233 311h137l234 -311h-141l-172 207l-174 -207h-117zM262 514q0 -448 297 -448q154 0 221.5 118t67.5 336q0 232 -67 339.5 t-216 107.5q-146 0 -224.5 -112.5t-78.5 -340.5z" />
<glyph unicode="&#xf5;" horiz-adv-x="1110" d="M102 516q0 263 123 403t344 140q228 0 333.5 -129.5t105.5 -411.5q0 -262 -112 -402.5t-345 -140.5q-220 0 -334.5 138t-114.5 403zM242 1253q40 93 88.5 143t99.5 50q49 0 127 -45l43 -23q54 -28 84 -28q64 0 111 98l79 -25q-75 -202 -188 -202q-61 0 -123 34l-47 25 q-70 39 -92 39q-31 0 -56 -21.5t-53 -72.5zM262 514q0 -448 297 -448q154 0 221.5 118t67.5 336q0 232 -67 339.5t-216 107.5q-146 0 -224.5 -112.5t-78.5 -340.5z" />
<glyph unicode="&#xf6;" horiz-adv-x="1110" d="M102 516q0 263 123 403t344 140q228 0 333.5 -129.5t105.5 -411.5q0 -262 -112 -402.5t-345 -140.5q-220 0 -334.5 138t-114.5 403zM262 514q0 -448 297 -448q154 0 221.5 118t67.5 336q0 232 -67 339.5t-216 107.5q-146 0 -224.5 -112.5t-78.5 -340.5zM279 1350 q0 98 94 98q43 0 66.5 -20.5t23.5 -77.5q0 -95 -94 -95q-43 0 -66.5 21t-23.5 74zM641 1350q0 98 92 98q45 0 67.5 -20.5t22.5 -77.5q0 -95 -92 -95q-44 0 -67 21t-23 74z" />
<glyph unicode="&#xf7;" horiz-adv-x="1517" d="M203 563v131h1112v-131h-1112zM666 268q0 101 94 101q43 0 66.5 -22t23.5 -79q0 -94 -94 -94q-90 0 -90 94zM666 979q0 100 94 100q43 0 66.5 -21.5t23.5 -78.5q0 -94 -94 -94q-90 0 -90 94z" />
<glyph unicode="&#xf8;" horiz-adv-x="1110" d="M102 516q0 263 123 403t344 140q128 0 213 -39l80 145l86 -45l-86 -153q146 -134 146 -449q0 -262 -112 -402.5t-345 -140.5q-122 0 -213 43l-80 -143l-88 43l86 154q-154 136 -154 444zM262 514q0 -202 62 -317l401 723q-62 47 -160 47q-146 0 -224.5 -112.5 t-78.5 -340.5zM391 115q68 -49 168 -49q154 0 221.5 118t67.5 336q0 197 -60 314z" />
<glyph unicode="&#xf9;" horiz-adv-x="1153" d="M168 422v610h154v-567q0 -194 18 -260q35 -125 190 -125q68 0 134.5 25.5t109.5 76.5q32 35 39.5 72.5t7.5 142.5v635h152v-684q0 -197 20 -348h-153q-15 77 -17 119q-123 -146 -346 -146q-116 0 -190.5 48t-100.5 161q-18 76 -18 240zM293 1481h219l213 -281h-137z" />
<glyph unicode="&#xfa;" horiz-adv-x="1153" d="M168 422v610h154v-567q0 -194 18 -260q35 -125 190 -125q68 0 134.5 25.5t109.5 76.5q32 35 39.5 72.5t7.5 142.5v635h152v-684q0 -197 20 -348h-153q-15 77 -17 119q-123 -146 -346 -146q-116 0 -190.5 48t-100.5 161q-18 76 -18 240zM446 1200l218 281h219l-314 -281 h-123z" />
<glyph unicode="&#xfb;" horiz-adv-x="1153" d="M168 422v610h154v-567q0 -194 18 -260q35 -125 190 -125q68 0 134.5 25.5t109.5 76.5q32 35 39.5 72.5t7.5 142.5v635h152v-684q0 -197 20 -348h-153q-15 77 -17 119q-123 -146 -346 -146q-116 0 -190.5 48t-100.5 161q-18 76 -18 240zM272 1200l234 311h137l234 -311 h-142l-172 207l-174 -207h-117z" />
<glyph unicode="&#xfc;" horiz-adv-x="1153" d="M168 422v610h154v-567q0 -194 18 -260q35 -125 190 -125q68 0 134.5 25.5t109.5 76.5q32 35 39.5 72.5t7.5 142.5v635h152v-684q0 -197 20 -348h-153q-15 77 -17 119q-123 -146 -346 -146q-116 0 -190.5 48t-100.5 161q-18 76 -18 240zM309 1350q0 98 94 98 q44 0 67.5 -20.5t23.5 -77.5q0 -95 -95 -95q-43 0 -66.5 21t-23.5 74zM672 1350q0 98 92 98q45 0 67.5 -20.5t22.5 -77.5q0 -95 -92 -95q-44 0 -67 21t-23 74z" />
<glyph unicode="&#xfd;" horiz-adv-x="985" d="M31 1032h172q256 -691 334 -926q174 588 282 926h148l-385 -1132q-55 -161 -86 -216q-59 -105 -160 -134q-47 -13 -109 -13q-47 0 -100 12v111q44 -14 96 -14q86 0 137 53q50 50 97 205l30 96h-57zM375 1200l217 281h219l-313 -281h-123z" />
<glyph unicode="&#xfe;" horiz-adv-x="1130" d="M170 -449v1956h158v-587q63 68 133 101.5t166 33.5q187 0 291 -134t104 -391q0 -129 -27.5 -229.5t-69.5 -160t-100.5 -97.5t-113 -52t-113.5 -14q-168 0 -274 93v-519h-154zM322 506q0 -179 9.5 -251t43.5 -110q70 -75 207 -75q129 0 204.5 112t75.5 346q0 219 -69 327 t-197 108q-99 0 -186 -68q-39 -31 -56.5 -68.5t-24.5 -107.5t-7 -213z" />
<glyph unicode="&#xff;" horiz-adv-x="985" d="M31 1032h172q256 -691 334 -926q174 588 282 926h148l-385 -1132q-55 -161 -86 -216q-59 -105 -160 -134q-47 -13 -109 -13q-47 0 -100 12v111q44 -14 96 -14q86 0 137 53q50 50 97 205l30 96h-57zM256 1350q0 98 94 98q43 0 66.5 -20.5t23.5 -77.5q0 -95 -94 -95 q-43 0 -66.5 21t-23.5 74zM618 1350q0 98 93 98q45 0 67.5 -20.5t22.5 -77.5q0 -95 -92 -95q-44 0 -67.5 21t-23.5 74z" />
<glyph unicode="&#x152;" horiz-adv-x="1978" d="M113 723q0 203 45 348.5t132.5 232t206.5 126.5t277 40q154 0 283 -24h819v-100h-655v-541h622v-103h-622v-602h675v-100h-839q-146 -23 -305 -23q-164 0 -281 39t-198.5 126.5t-120.5 231t-39 349.5zM285 727q0 -235 54 -378t156.5 -204t266.5 -61q203 0 295 25v1222 q-140 33 -283 33q-118 0 -204 -30t-152.5 -101t-99.5 -197t-33 -309z" />
<glyph unicode="&#x153;" horiz-adv-x="1751" d="M102 516q0 262 125 402.5t346 140.5q129 0 214.5 -44.5t140.5 -137.5q119 182 346 182q95 0 165.5 -26t113 -69t73.5 -108q51 -110 51 -297v-41h-682v-24q9 -418 328 -418q65 0 126 14.5t97.5 30.5t89.5 45v-115q-144 -78 -340 -78q-263 0 -378 191q-112 -189 -361 -189 q-219 0 -337 138.5t-118 402.5zM262 514q0 -219 79.5 -333.5t225.5 -114.5q151 0 217 118t66 336q0 239 -66.5 343t-214.5 104q-144 0 -225.5 -113t-81.5 -340zM999 604h508q0 70 -6 123.5t-22 100.5t-42 77t-67.5 47t-97.5 17q-52 0 -97.5 -18.5t-85.5 -58.5t-64 -114 t-26 -174z" />
<glyph unicode="&#x178;" horiz-adv-x="1269" d="M31 1446h202q327 -565 412 -721q10 17 124 216.5t290 504.5h188l-536 -852v-594h-164v594zM356 1669q0 100 93 100q43 0 66.5 -21.5t23.5 -78.5q0 -94 -95 -94q-42 0 -65 21t-23 73zM735 1669q0 100 94 100q43 0 67 -21.5t24 -78.5q0 -94 -95 -94q-90 0 -90 94z" />
<glyph unicode="&#x2c6;" horiz-adv-x="452" d="M-76 1200l234 311h137l233 -311h-141l-172 207l-174 -207h-117z" />
<glyph unicode="&#x2dc;" horiz-adv-x="452" d="M-88 1253q40 93 88.5 143t99.5 50q49 0 127 -45l43 -23q54 -28 84 -28q64 0 111 98l80 -25q-75 -202 -189 -202q-61 0 -123 34l-47 25q-70 39 -92 39q-31 0 -55.5 -21.5t-52.5 -72.5z" />
<glyph unicode="&#x2000;" horiz-adv-x="971" />
<glyph unicode="&#x2001;" horiz-adv-x="1942" />
<glyph unicode="&#x2002;" horiz-adv-x="971" />
<glyph unicode="&#x2003;" horiz-adv-x="1942" />
<glyph unicode="&#x2004;" horiz-adv-x="647" />
<glyph unicode="&#x2005;" horiz-adv-x="485" />
<glyph unicode="&#x2006;" horiz-adv-x="323" />
<glyph unicode="&#x2007;" horiz-adv-x="323" />
<glyph unicode="&#x2008;" horiz-adv-x="242" />
<glyph unicode="&#x2009;" horiz-adv-x="388" />
<glyph unicode="&#x200a;" horiz-adv-x="107" />
<glyph unicode="&#x2010;" horiz-adv-x="696" d="M90 498v145h516v-145h-516z" />
<glyph unicode="&#x2011;" horiz-adv-x="696" d="M90 498v145h516v-145h-516z" />
<glyph unicode="&#x2012;" horiz-adv-x="696" d="M90 498v145h516v-145h-516z" />
<glyph unicode="&#x2013;" horiz-adv-x="1124" d="M90 502v137h942v-137h-942z" />
<glyph unicode="&#x2014;" horiz-adv-x="2193" d="M90 502v137h2011v-137h-2011z" />
<glyph unicode="&#x2018;" horiz-adv-x="385" d="M82 1040q0 215 154 426h102q-50 -100 -69 -200t-19 -226h-168z" />
<glyph unicode="&#x2019;" horiz-adv-x="385" d="M49 1040q48 101 67 201t19 225h168q0 -215 -151 -426h-103z" />
<glyph unicode="&#x201a;" horiz-adv-x="385" d="M49 -184q48 100 67 200t19 224h168q0 -213 -151 -424h-103z" />
<glyph unicode="&#x201c;" horiz-adv-x="692" d="M84 1040q0 215 154 426h102q-49 -101 -68.5 -201.5t-19.5 -224.5h-168zM385 1040q0 215 154 426h102q-49 -101 -68.5 -201.5t-19.5 -224.5h-168z" />
<glyph unicode="&#x201d;" horiz-adv-x="692" d="M51 1040q49 101 68.5 201.5t19.5 224.5h168q0 -216 -153 -426h-103zM352 1040q48 101 67 201t19 225h170q0 -216 -153 -426h-103z" />
<glyph unicode="&#x201e;" horiz-adv-x="692" d="M51 -188q49 101 68.5 201.5t19.5 224.5h168q0 -216 -153 -426h-103zM352 -188q48 101 67 201t19 225h170q0 -216 -153 -426h-103z" />
<glyph unicode="&#x2022;" horiz-adv-x="653" d="M84 578q0 139 61 195t189 56q122 0 178.5 -55t56.5 -196q0 -132 -59.5 -187t-185.5 -55q-123 0 -181.5 52t-58.5 190z" />
<glyph unicode="&#x2026;" horiz-adv-x="1685" d="M164 94q0 58 30 86.5t80 28.5t79.5 -28t29.5 -87q0 -54 -30 -82t-81 -28q-50 0 -79 27t-29 83zM709 94q0 57 31 86t81 29q107 0 107 -115q0 -54 -29.5 -82t-81.5 -28q-49 0 -78.5 27t-29.5 83zM1255 94q0 57 31.5 86t81.5 29q107 0 107 -115q0 -54 -29.5 -82t-81.5 -28 q-49 0 -79 27t-30 83z" />
<glyph unicode="&#x202f;" horiz-adv-x="388" />
<glyph unicode="&#x2039;" horiz-adv-x="585" d="M100 520v96l375 383v-163l-246 -254l246 -256v-193z" />
<glyph unicode="&#x203a;" horiz-adv-x="585" d="M111 133v162l245 254l-245 258v192l374 -387v-96z" />
<glyph unicode="&#x205f;" horiz-adv-x="485" />
<glyph unicode="&#x20ac;" horiz-adv-x="1335" d="M156 504v92h145q-2 23 -2 74q0 75 4 110h-147v92h157q42 261 194.5 393t399.5 132q99 0 168.5 -15.5t149.5 -44.5v-118q-146 73 -314 73q-378 0 -440 -420h580v-92h-590q-2 -31 -2 -96q0 -61 2 -88h590v-92h-580q57 -410 422 -410q169 0 338 90v-116q-173 -80 -357 -80 q-501 0 -565 516h-153z" />
<glyph unicode="&#x2122;" horiz-adv-x="1841" d="M90 1370v76h641v-76h-264v-694h-123v694h-254zM862 676l21 770h168q176 -463 231 -621q60 190 211 621h160q-1 -2 24 -770h-116q-4 162 -8 308t-6 218.5t-3 128.5q-46 -148 -231 -655h-88q-229 615 -242 651q-3 -189 -16 -651h-105z" />
<glyph unicode="&#xe000;" horiz-adv-x="1034" d="M0 0v1034h1034v-1034h-1034z" />
</font>
</defs>
</svg>
